<mxfile host="app.diagrams.net" modified="2021-02-08T04:38:02.417Z" agent="5.0 (Windows NT 10.0; WOW64) AppleWebKit/537.36 (KHTML, like Gecko) Chrome/70.0.3538.25 Safari/537.36 Core/1.70.3861.400 QQBrowser/10.7.4313.400" etag="RWTZ7xOtMp6Al7J8VDlM" version="14.2.9" type="github">
  <diagram id="muJ2HWbKyWXjHa_u4N1K" name="Page-1">
    <mxGraphModel dx="1571" dy="928" grid="1" gridSize="10" guides="1" tooltips="1" connect="1" arrows="1" fold="1" page="1" pageScale="1" pageWidth="827" pageHeight="1169" math="0" shadow="0">
      <root>
        <mxCell id="0" />
        <mxCell id="1" parent="0" />
        <mxCell id="MjTusuqiSa3jMd16lM1r-5" value="界&lt;br&gt;面" style="rounded=0;whiteSpace=wrap;html=1;align=left;fillColor=#d5e8d4;strokeColor=#82b366;" parent="1" vertex="1">
          <mxGeometry x="90" y="90" width="530" height="100" as="geometry" />
        </mxCell>
        <mxCell id="MjTusuqiSa3jMd16lM1r-6" value="模&lt;br&gt;型" style="rounded=0;whiteSpace=wrap;html=1;align=left;fillColor=#e1d5e7;strokeColor=#9673a6;" parent="1" vertex="1">
          <mxGeometry x="90" y="225" width="530" height="90" as="geometry" />
        </mxCell>
        <mxCell id="lwSbazrePBINatGmSuZH-26" style="edgeStyle=orthogonalEdgeStyle;rounded=0;orthogonalLoop=1;jettySize=auto;html=1;exitX=0.5;exitY=1;exitDx=0;exitDy=0;entryX=0.5;entryY=0;entryDx=0;entryDy=0;fillColor=#0050ef;strokeColor=#CC6600;" edge="1" parent="1" source="MjTusuqiSa3jMd16lM1r-7" target="MjTusuqiSa3jMd16lM1r-10">
          <mxGeometry relative="1" as="geometry" />
        </mxCell>
        <mxCell id="lwSbazrePBINatGmSuZH-27" style="edgeStyle=orthogonalEdgeStyle;rounded=0;orthogonalLoop=1;jettySize=auto;html=1;exitX=0.5;exitY=1;exitDx=0;exitDy=0;entryX=0.5;entryY=0;entryDx=0;entryDy=0;fillColor=#0050ef;strokeColor=#CC6600;" edge="1" parent="1" source="MjTusuqiSa3jMd16lM1r-7" target="MjTusuqiSa3jMd16lM1r-9">
          <mxGeometry relative="1" as="geometry" />
        </mxCell>
        <mxCell id="lwSbazrePBINatGmSuZH-28" style="edgeStyle=orthogonalEdgeStyle;rounded=0;orthogonalLoop=1;jettySize=auto;html=1;exitX=0.5;exitY=1;exitDx=0;exitDy=0;entryX=0.5;entryY=0;entryDx=0;entryDy=0;fillColor=#0050ef;strokeColor=#CC6600;" edge="1" parent="1" source="MjTusuqiSa3jMd16lM1r-7" target="MjTusuqiSa3jMd16lM1r-8">
          <mxGeometry relative="1" as="geometry" />
        </mxCell>
        <mxCell id="MjTusuqiSa3jMd16lM1r-7" value="逻&lt;br&gt;辑" style="rounded=0;whiteSpace=wrap;html=1;align=left;fillColor=#dae8fc;strokeColor=#6c8ebf;" parent="1" vertex="1">
          <mxGeometry x="90" y="356" width="530" height="94" as="geometry" />
        </mxCell>
        <mxCell id="lwSbazrePBINatGmSuZH-31" style="edgeStyle=orthogonalEdgeStyle;rounded=0;orthogonalLoop=1;jettySize=auto;html=1;exitX=0.5;exitY=1;exitDx=0;exitDy=0;entryX=0.5;entryY=0;entryDx=0;entryDy=0;entryPerimeter=0;strokeColor=#666600;shadow=1;" edge="1" parent="1" source="MjTusuqiSa3jMd16lM1r-8" target="MjTusuqiSa3jMd16lM1r-14">
          <mxGeometry relative="1" as="geometry" />
        </mxCell>
        <mxCell id="MjTusuqiSa3jMd16lM1r-8" value="数据访问器" style="rounded=0;whiteSpace=wrap;html=1;fillColor=#ffe6cc;strokeColor=#d79b00;shadow=1;" parent="1" vertex="1">
          <mxGeometry x="90" y="490" width="150" height="60" as="geometry" />
        </mxCell>
        <mxCell id="lwSbazrePBINatGmSuZH-30" style="edgeStyle=orthogonalEdgeStyle;rounded=0;orthogonalLoop=1;jettySize=auto;html=1;exitX=0.5;exitY=1;exitDx=0;exitDy=0;entryX=0.5;entryY=0;entryDx=0;entryDy=0;strokeColor=#666600;shadow=1;" edge="1" parent="1" source="MjTusuqiSa3jMd16lM1r-9" target="MjTusuqiSa3jMd16lM1r-12">
          <mxGeometry relative="1" as="geometry" />
        </mxCell>
        <mxCell id="MjTusuqiSa3jMd16lM1r-9" value="HTTP接口" style="rounded=0;whiteSpace=wrap;html=1;fillColor=#ffe6cc;strokeColor=#d79b00;shadow=1;" parent="1" vertex="1">
          <mxGeometry x="280" y="490" width="150" height="60" as="geometry" />
        </mxCell>
        <mxCell id="lwSbazrePBINatGmSuZH-29" style="edgeStyle=orthogonalEdgeStyle;rounded=0;orthogonalLoop=1;jettySize=auto;html=1;exitX=0.5;exitY=1;exitDx=0;exitDy=0;entryX=0.5;entryY=0;entryDx=0;entryDy=0;strokeColor=#666600;shadow=1;" edge="1" parent="1" source="MjTusuqiSa3jMd16lM1r-10" target="MjTusuqiSa3jMd16lM1r-11">
          <mxGeometry relative="1" as="geometry" />
        </mxCell>
        <mxCell id="MjTusuqiSa3jMd16lM1r-10" value="Socket接口" style="rounded=0;whiteSpace=wrap;html=1;fillColor=#ffe6cc;strokeColor=#d79b00;shadow=1;" parent="1" vertex="1">
          <mxGeometry x="470" y="490" width="150" height="60" as="geometry" />
        </mxCell>
        <mxCell id="MjTusuqiSa3jMd16lM1r-11" value="Socket服务" style="rounded=0;whiteSpace=wrap;html=1;fillColor=#f8cecc;strokeColor=#b85450;shadow=1;" parent="1" vertex="1">
          <mxGeometry x="470" y="590" width="150" height="60" as="geometry" />
        </mxCell>
        <mxCell id="MjTusuqiSa3jMd16lM1r-12" value="HTTP服务" style="rounded=0;whiteSpace=wrap;html=1;fillColor=#f8cecc;strokeColor=#b85450;shadow=1;" parent="1" vertex="1">
          <mxGeometry x="280" y="590" width="150" height="60" as="geometry" />
        </mxCell>
        <mxCell id="MjTusuqiSa3jMd16lM1r-14" value="IndexDb/LocalStorage/File" style="shape=cylinder3;whiteSpace=wrap;html=1;boundedLbl=1;backgroundOutline=1;size=15;fillColor=#f8cecc;strokeColor=#b85450;shadow=1;" parent="1" vertex="1">
          <mxGeometry x="90" y="585" width="150" height="70" as="geometry" />
        </mxCell>
        <mxCell id="MjTusuqiSa3jMd16lM1r-15" value="" style="endArrow=classic;startArrow=classic;html=1;exitX=0.5;exitY=0;exitDx=0;exitDy=0;strokeColor=#CC6600;" parent="1" source="MjTusuqiSa3jMd16lM1r-6" target="MjTusuqiSa3jMd16lM1r-5" edge="1">
          <mxGeometry width="50" height="50" relative="1" as="geometry">
            <mxPoint x="390" y="500" as="sourcePoint" />
            <mxPoint x="440" y="450" as="targetPoint" />
          </mxGeometry>
        </mxCell>
        <mxCell id="MjTusuqiSa3jMd16lM1r-16" value="页面" style="rounded=0;whiteSpace=wrap;html=1;align=center;fillColor=#cdeb8b;shadow=1;strokeColor=#006600;" parent="1" vertex="1">
          <mxGeometry x="130" y="120" width="70" height="40" as="geometry" />
        </mxCell>
        <mxCell id="MjTusuqiSa3jMd16lM1r-17" value="路由" style="rounded=0;whiteSpace=wrap;html=1;align=center;fillColor=#cdeb8b;shadow=1;strokeColor=#006600;" parent="1" vertex="1">
          <mxGeometry x="230" y="120" width="70" height="40" as="geometry" />
        </mxCell>
        <mxCell id="MjTusuqiSa3jMd16lM1r-18" value="组件" style="rounded=0;whiteSpace=wrap;html=1;align=center;fillColor=#cdeb8b;shadow=1;strokeColor=#006600;" parent="1" vertex="1">
          <mxGeometry x="330" y="120" width="70" height="40" as="geometry" />
        </mxCell>
        <mxCell id="MjTusuqiSa3jMd16lM1r-19" value="交互控制" style="rounded=0;whiteSpace=wrap;html=1;align=center;fillColor=#cdeb8b;shadow=1;strokeColor=#006600;" parent="1" vertex="1">
          <mxGeometry x="430" y="120" width="70" height="40" as="geometry" />
        </mxCell>
        <mxCell id="MjTusuqiSa3jMd16lM1r-20" value="界面工具" style="rounded=0;whiteSpace=wrap;html=1;align=center;fillColor=#cdeb8b;shadow=1;strokeColor=#006600;" parent="1" vertex="1">
          <mxGeometry x="530" y="120" width="70" height="40" as="geometry" />
        </mxCell>
        <mxCell id="lwSbazrePBINatGmSuZH-1" value="消息" style="shape=parallelogram;perimeter=parallelogramPerimeter;whiteSpace=wrap;html=1;fixedSize=1;fillColor=#fad9d5;strokeColor=#ae4132;shadow=1;" vertex="1" parent="1">
          <mxGeometry x="125" y="247.5" width="80" height="45" as="geometry" />
        </mxCell>
        <mxCell id="lwSbazrePBINatGmSuZH-2" value="会话" style="shape=parallelogram;perimeter=parallelogramPerimeter;whiteSpace=wrap;html=1;fixedSize=1;fillColor=#fad9d5;strokeColor=#ae4132;shadow=1;" vertex="1" parent="1">
          <mxGeometry x="220" y="247.5" width="80" height="45" as="geometry" />
        </mxCell>
        <mxCell id="lwSbazrePBINatGmSuZH-3" value="好友" style="shape=parallelogram;perimeter=parallelogramPerimeter;whiteSpace=wrap;html=1;fixedSize=1;fillColor=#fad9d5;strokeColor=#ae4132;shadow=1;" vertex="1" parent="1">
          <mxGeometry x="320" y="247.5" width="80" height="45" as="geometry" />
        </mxCell>
        <mxCell id="lwSbazrePBINatGmSuZH-6" value="表情" style="shape=parallelogram;perimeter=parallelogramPerimeter;whiteSpace=wrap;html=1;fixedSize=1;fillColor=#fad9d5;strokeColor=#ae4132;shadow=1;" vertex="1" parent="1">
          <mxGeometry x="420" y="247.5" width="80" height="45" as="geometry" />
        </mxCell>
        <mxCell id="lwSbazrePBINatGmSuZH-7" value="其他" style="shape=parallelogram;perimeter=parallelogramPerimeter;whiteSpace=wrap;html=1;fixedSize=1;fillColor=#fad9d5;strokeColor=#ae4132;shadow=1;" vertex="1" parent="1">
          <mxGeometry x="525" y="247.5" width="80" height="45" as="geometry" />
        </mxCell>
        <mxCell id="lwSbazrePBINatGmSuZH-19" value="收发消息" style="shape=hexagon;perimeter=hexagonPerimeter2;whiteSpace=wrap;html=1;fixedSize=1;align=center;fillColor=#b0e3e6;strokeColor=#0e8088;shadow=1;" vertex="1" parent="1">
          <mxGeometry x="120.5" y="378.25" width="79.5" height="49.5" as="geometry" />
        </mxCell>
        <mxCell id="lwSbazrePBINatGmSuZH-20" value="会话增减" style="shape=hexagon;perimeter=hexagonPerimeter2;whiteSpace=wrap;html=1;fixedSize=1;align=center;fillColor=#b0e3e6;strokeColor=#0e8088;shadow=1;" vertex="1" parent="1">
          <mxGeometry x="320.5" y="378.25" width="79.5" height="49.5" as="geometry" />
        </mxCell>
        <mxCell id="lwSbazrePBINatGmSuZH-21" value="表情管理" style="shape=hexagon;perimeter=hexagonPerimeter2;whiteSpace=wrap;html=1;fixedSize=1;align=center;fillColor=#b0e3e6;strokeColor=#0e8088;shadow=1;" vertex="1" parent="1">
          <mxGeometry x="425.25" y="378.25" width="79.5" height="49.5" as="geometry" />
        </mxCell>
        <mxCell id="lwSbazrePBINatGmSuZH-22" value="其他" style="shape=hexagon;perimeter=hexagonPerimeter2;whiteSpace=wrap;html=1;fixedSize=1;align=center;fillColor=#b0e3e6;strokeColor=#0e8088;shadow=1;" vertex="1" parent="1">
          <mxGeometry x="525.5" y="378.25" width="79.5" height="49.5" as="geometry" />
        </mxCell>
        <mxCell id="lwSbazrePBINatGmSuZH-23" value="增删好友" style="shape=hexagon;perimeter=hexagonPerimeter2;whiteSpace=wrap;html=1;fixedSize=1;align=center;fillColor=#b0e3e6;strokeColor=#0e8088;shadow=1;" vertex="1" parent="1">
          <mxGeometry x="220.5" y="378.25" width="79.5" height="49.5" as="geometry" />
        </mxCell>
        <mxCell id="lwSbazrePBINatGmSuZH-24" value="" style="endArrow=classic;startArrow=classic;html=1;entryX=0.5;entryY=1;entryDx=0;entryDy=0;exitX=0.5;exitY=0;exitDx=0;exitDy=0;strokeColor=#CC6600;" edge="1" parent="1" source="MjTusuqiSa3jMd16lM1r-7" target="MjTusuqiSa3jMd16lM1r-6">
          <mxGeometry width="50" height="50" relative="1" as="geometry">
            <mxPoint x="690" y="380" as="sourcePoint" />
            <mxPoint x="740" y="330" as="targetPoint" />
          </mxGeometry>
        </mxCell>
      </root>
    </mxGraphModel>
  </diagram>
</mxfile>
